<svg width="169" height="64" viewBox="0 0 169 64" fill="none" xmlns="http://www.w3.org/2000/svg">
<rect y="56" width="169" height="8" rx="3" fill="#358668"/>
<path d="M19.8476 62.8258C16.6836 62.8258 14.3596 62.0278 12.8756 60.4318C11.3916 58.8358 10.6496 56.1898 10.6496 52.4938C10.6496 49.5538 11.1396 46.3898 12.1196 43.0018C13.1276 39.6138 14.7236 36.7158 16.9076 34.3078C19.1196 31.8718 21.9196 30.6538 25.3076 30.6538C27.4076 30.6538 29.1016 31.1158 30.3896 32.0398C31.6776 32.9638 32.3216 34.3778 32.3216 36.2818C32.3216 37.4858 32.0836 38.4378 31.6076 39.1378C31.1316 39.8098 30.3896 40.1458 29.3816 40.1458C28.3736 40.1458 27.5756 39.7818 26.9876 39.0538C27.4916 38.8018 27.9396 38.2978 28.3316 37.5418C28.7236 36.7858 28.9196 36.0018 28.9196 35.1898C28.9196 34.4338 28.7096 33.8178 28.2896 33.3418C27.8976 32.8658 27.2536 32.6278 26.3576 32.6278C24.8736 32.6278 23.4596 33.6498 22.1156 35.6938C20.7716 37.7098 19.6796 40.2578 18.8396 43.3378C18.0276 46.4178 17.6216 49.3858 17.6216 52.2418C17.6216 54.3698 17.9856 55.9938 18.7136 57.1138C19.4416 58.2338 20.7576 58.7938 22.6616 58.7938C24.3136 58.7938 25.8396 58.4298 27.2396 57.7018C28.6396 56.9738 29.8436 55.9378 30.8516 54.5938L31.8176 55.0138C31.1176 56.7778 30.0816 58.2478 28.7096 59.4238C27.3376 60.5998 25.8676 61.4678 24.2996 62.0278C22.7316 62.5598 21.2476 62.8258 19.8476 62.8258ZM35.7685 62.4058C34.1725 62.4058 32.8425 61.8598 31.7785 60.7678C30.7145 59.6758 30.1825 57.9678 30.1825 55.6438C30.1825 53.5718 30.5885 51.4018 31.4005 49.1338C32.2405 46.8378 33.4725 44.9058 35.0965 43.3378C36.7485 41.7418 38.7085 40.9438 40.9765 40.9438C42.1245 40.9438 42.9785 41.1398 43.5385 41.5318C44.0985 41.9238 44.3785 42.4418 44.3785 43.0858V43.3798L44.8405 41.1538H50.8885L47.8645 55.4338C47.7525 55.8538 47.6965 56.3018 47.6965 56.7778C47.6965 57.9818 48.2705 58.5838 49.4185 58.5838C50.2025 58.5838 50.8745 58.2198 51.4345 57.4918C52.0225 56.7638 52.4845 55.8118 52.8205 54.6358H54.5845C53.5485 57.6598 52.2605 59.7178 50.7205 60.8098C49.2085 61.8738 47.6825 62.4058 46.1425 62.4058C44.9665 62.4058 44.0145 62.0838 43.2865 61.4398C42.5865 60.7678 42.1665 59.8018 42.0265 58.5418C41.2145 59.6898 40.3045 60.6278 39.2965 61.3558C38.3165 62.0558 37.1405 62.4058 35.7685 62.4058ZM38.4985 58.3318C39.1985 58.3318 39.8845 58.0098 40.5565 57.3658C41.2565 56.6938 41.7325 55.7838 41.9845 54.6358L44.0005 45.1438C44.0005 44.7798 43.8605 44.4298 43.5805 44.0938C43.3005 43.7298 42.8665 43.5478 42.2785 43.5478C41.1585 43.5478 40.1505 44.2058 39.2545 45.5218C38.3585 46.8098 37.6585 48.3778 37.1545 50.2258C36.6505 52.0458 36.3985 53.6558 36.3985 55.0558C36.3985 56.4558 36.5945 57.3518 36.9865 57.7438C37.4065 58.1358 37.9105 58.3318 38.4985 58.3318ZM55.6919 41.1538H61.7399L61.1939 43.7578C62.1459 42.9178 62.9999 42.2738 63.7559 41.8258C64.5399 41.3778 65.3799 41.1538 66.2759 41.1538C67.1719 41.1538 67.8719 41.4618 68.3759 42.0778C68.9079 42.6938 69.1739 43.4358 69.1739 44.3038C69.1739 45.1158 68.9079 45.8298 68.3759 46.4458C67.8439 47.0618 67.1019 47.3698 66.1499 47.3698C65.5339 47.3698 65.1139 47.2298 64.8899 46.9498C64.6939 46.6418 64.5399 46.2078 64.4279 45.6478C64.3439 45.2838 64.2599 45.0178 64.1759 44.8498C64.0919 44.6818 63.9379 44.5978 63.7139 44.5978C63.1259 44.5978 62.6219 44.7238 62.2019 44.9758C61.8099 45.1998 61.2919 45.6058 60.6479 46.1938L57.2879 62.1538H51.2399L55.6919 41.1538ZM73.415 62.4058C72.071 62.4058 70.937 62.1538 70.013 61.6498C69.089 61.1178 68.403 60.4458 67.955 59.6338C67.507 58.7938 67.283 57.9258 67.283 57.0298C67.283 56.1058 67.507 55.3078 67.955 54.6358C68.375 53.9358 68.893 53.4318 69.509 53.1238C70.601 51.1638 71.553 49.1898 72.365 47.2018C73.177 45.1858 73.947 43.0158 74.675 40.6918L80.891 39.8518C81.031 43.4358 81.269 47.3138 81.605 51.4858C81.745 53.1658 81.815 54.3838 81.815 55.1398C81.815 55.7838 81.759 56.3158 81.647 56.7358C82.963 55.9798 83.971 55.2798 84.671 54.6358H86.435C84.643 56.7078 82.501 58.4578 80.009 59.8858C79.197 60.7538 78.189 61.3978 76.985 61.8178C75.809 62.2098 74.619 62.4058 73.415 62.4058ZM72.071 59.0878C73.107 59.0878 73.975 58.7798 74.675 58.1638C75.375 57.5478 75.725 56.5538 75.725 55.1818C75.725 54.3418 75.641 53.1658 75.473 51.6538C75.193 48.4618 75.011 46.3198 74.927 45.2278C74.255 47.4398 73.121 50.0858 71.525 53.1658C72.169 53.5018 72.491 53.9918 72.491 54.6358C72.491 55.1678 72.309 55.6438 71.945 56.0638C71.609 56.4838 71.175 56.6938 70.643 56.6938C70.055 56.6938 69.677 56.5118 69.509 56.1478C69.509 57.1558 69.705 57.8978 70.097 58.3738C70.517 58.8498 71.175 59.0878 72.071 59.0878ZM99.8261 62.4058C98.1181 62.4058 96.8581 61.9578 96.0461 61.0618C95.2621 60.1378 94.8701 59.0038 94.8701 57.6598C94.8701 57.0718 94.9401 56.4138 95.0801 55.6858C95.2201 54.9298 95.3601 54.2018 95.5001 53.5018C95.6681 52.8018 95.7801 52.3538 95.8361 52.1578C96.0601 51.1778 96.2701 50.2118 96.4661 49.2598C96.6621 48.3078 96.7601 47.5378 96.7601 46.9498C96.7601 45.5218 96.2561 44.8078 95.2481 44.8078C94.5201 44.8078 93.8761 45.1718 93.3161 45.8998C92.7561 46.5998 92.3081 47.5238 91.9721 48.6718L89.1161 62.1538H83.0681L89.1581 33.5938L95.3741 32.7538L93.1061 43.3378C94.5061 41.7698 96.1441 40.9858 98.0201 40.9858C99.4481 40.9858 100.582 41.3778 101.422 42.1618C102.262 42.9458 102.682 44.1358 102.682 45.7318C102.682 46.5438 102.584 47.4538 102.388 48.4618C102.192 49.4418 101.912 50.6458 101.548 52.0738C101.324 52.9418 101.114 53.7958 100.918 54.6358C100.75 55.4478 100.666 56.0918 100.666 56.5678C100.666 57.1278 100.792 57.5618 101.044 57.8698C101.296 58.1778 101.73 58.3318 102.346 58.3318C103.186 58.3318 103.858 58.0378 104.362 57.4498C104.866 56.8338 105.37 55.8958 105.874 54.6358H107.638C106.602 57.7158 105.398 59.7878 104.026 60.8518C102.682 61.8878 101.282 62.4058 99.8261 62.4058ZM110.909 62.4058C109.313 62.4058 107.983 61.8598 106.919 60.7678C105.855 59.6758 105.323 57.9678 105.323 55.6438C105.323 53.5718 105.729 51.4018 106.541 49.1338C107.381 46.8378 108.613 44.9058 110.237 43.3378C111.889 41.7418 113.849 40.9438 116.117 40.9438C117.265 40.9438 118.119 41.1398 118.679 41.5318C119.239 41.9238 119.519 42.4418 119.519 43.0858V43.3798L119.981 41.1538H126.029L123.005 55.4338C122.893 55.8538 122.837 56.3018 122.837 56.7778C122.837 57.9818 123.411 58.5838 124.559 58.5838C125.343 58.5838 126.015 58.2198 126.575 57.4918C127.163 56.7638 127.625 55.8118 127.961 54.6358H129.725C128.689 57.6598 127.401 59.7178 125.861 60.8098C124.349 61.8738 122.823 62.4058 121.283 62.4058C120.107 62.4058 119.155 62.0838 118.427 61.4398C117.727 60.7678 117.307 59.8018 117.167 58.5418C116.355 59.6898 115.445 60.6278 114.437 61.3558C113.457 62.0558 112.281 62.4058 110.909 62.4058ZM113.639 58.3318C114.339 58.3318 115.025 58.0098 115.697 57.3658C116.397 56.6938 116.873 55.7838 117.125 54.6358L119.141 45.1438C119.141 44.7798 119.001 44.4298 118.721 44.0938C118.441 43.7298 118.007 43.5478 117.419 43.5478C116.299 43.5478 115.291 44.2058 114.395 45.5218C113.499 46.8098 112.799 48.3778 112.295 50.2258C111.791 52.0458 111.539 53.6558 111.539 55.0558C111.539 56.4558 111.735 57.3518 112.127 57.7438C112.547 58.1358 113.051 58.3318 113.639 58.3318ZM130.833 41.1538H136.881L136.335 43.7578C137.287 42.9178 138.141 42.2738 138.897 41.8258C139.681 41.3778 140.521 41.1538 141.417 41.1538C142.313 41.1538 143.013 41.4618 143.517 42.0778C144.049 42.6938 144.315 43.4358 144.315 44.3038C144.315 45.1158 144.049 45.8298 143.517 46.4458C142.985 47.0618 142.243 47.3698 141.291 47.3698C140.675 47.3698 140.255 47.2298 140.031 46.9498C139.835 46.6418 139.681 46.2078 139.569 45.6478C139.485 45.2838 139.401 45.0178 139.317 44.8498C139.233 44.6818 139.079 44.5978 138.855 44.5978C138.267 44.5978 137.763 44.7238 137.343 44.9758C136.951 45.1998 136.433 45.6058 135.789 46.1938L132.429 62.1538H126.381L130.833 41.1538ZM149.69 62.4058C147.646 62.4058 146.05 61.8738 144.902 60.8098C143.754 59.7178 143.18 58.0238 143.18 55.7278C143.18 53.7958 143.558 51.6678 144.314 49.3438C145.07 47.0198 146.302 45.0178 148.01 43.3378C149.718 41.6298 151.888 40.7758 154.52 40.7758C157.6 40.7758 159.14 42.1198 159.14 44.8078C159.14 46.3758 158.692 47.8178 157.796 49.1338C156.9 50.4498 155.71 51.5138 154.226 52.3258C152.742 53.1098 151.16 53.5578 149.48 53.6698C149.424 54.2858 149.396 54.7058 149.396 54.9298C149.396 57.2538 150.264 58.4158 152 58.4158C152.784 58.4158 153.624 58.2058 154.52 57.7858C155.416 57.3658 156.228 56.8338 156.956 56.1898C156.2 60.3338 153.778 62.4058 149.69 62.4058ZM149.774 51.6538C150.838 51.6258 151.832 51.2758 152.756 50.6038C153.708 49.9318 154.464 49.0778 155.024 48.0418C155.612 46.9778 155.906 45.8718 155.906 44.7238C155.906 43.5758 155.556 43.0018 154.856 43.0018C153.876 43.0018 152.896 43.8978 151.916 45.6898C150.964 47.4538 150.25 49.4418 149.774 51.6538Z" fill="white"/>
<path d="M100.332 18.1451C94.882 27.1908 87.3718 29 80.3485 29C77.0697 29 72.8246 28.1774 71.2761 25.9174C68.1666 21.3789 68.8871 19.1509 69.4593 16.8716C71.276 9.63499 100.343 4.20742 103.977 0.58916C107.61 -3.0291 105.782 10.9084 100.332 18.1451Z" fill="#358668"/>
<path d="M65 26.3636C71.1515 25.4848 84.5091 20.0364 88.7273 15.8182" stroke="#1A6047" stroke-width="2" stroke-linejoin="round"/>
</svg>
